# xmcd
#
# Track frame offsets: 
#        150
#        9372
#        21332
#        30242
#        39985
#        52565
#        62790
#        73837
#        88150
#        98002
#        107462
#        118952
#        132952
#        141950
#        154645
#        166707
#        176120
#
# Disc length: 2450 seconds
#
# Revision: 0
# Processed by: cddbd v1.5.1PL0 Copyright (c) Steve Scherf et al.
# Submitted via: ExactAudioCopy v0.95a4
#
DISCID=d4099011
DTITLE=Bas De Haan - Amsterdam Country Blues
DYEAR=1900
DGENRE=
TTITLE0=Are You Ready
TTITLE1=I Keep Wondering Why
TTITLE2=Amsterdam Country Blues
TTITLE3=Pass It On
TTITLE4=We're Doing The Best We Can
TTITLE5=I've Been Down
TTITLE6=Apple Pie Girl
TTITLE7=I'll Never Learn
TTITLE8=Honey
TTITLE9=Same Old Song
TTITLE10=Gimme A Chance
TTITLE11=I Gotta Know
TTITLE12=We Can Only Help Ourselves
TTITLE13=Stirring In My Soup
TTITLE14=Born Without Asking
TTITLE15=Harmonica Jam
TTITLE16=Dutch Lullaby Noise
EXTD=
EXTT0=
EXTT1=
EXTT2=
EXTT3=
EXTT4=
EXTT5=
EXTT6=
EXTT7=
EXTT8=
EXTT9=
EXTT10=
EXTT11=
EXTT12=
EXTT13=
EXTT14=
EXTT15=
EXTT16=
PLAYORDER=
